<?xml version="1.0" encoding="UTF-8" standalone="no"?><svg xmlns="http://www.w3.org/2000/svg" xmlns:xlink="http://www.w3.org/1999/xlink" contentScriptType="application/ecmascript" contentStyleType="text/css" height="1491px" preserveAspectRatio="none" style="width:2119px;height:1491px;" version="1.1" viewBox="0 0 2119 1491" width="2119px" zoomAndPan="magnify"><defs/><g><text fill="#000000" font-family="sans-serif" font-size="18" lengthAdjust="spacingAndGlyphs" textLength="391" x="859.75" y="27.4375">station_main - one sampling cycle (period 1 s)</text><rect fill="#EAF2FF" height="1433.834" style="stroke: #A80036; stroke-width: 1.0;" width="1376" x="207" y="39.7793"/><text fill="#000000" font-family="sans-serif" font-size="13" font-weight="bold" lengthAdjust="spacingAndGlyphs" textLength="268" x="761" y="52.373">used by the sampler thread during a cycle</text><rect fill="#F3F3F3" height="1433.834" style="stroke: #A80036; stroke-width: 1.0;" width="172" x="1664" y="39.7793"/><text fill="#000000" font-family="sans-serif" font-size="13" font-weight="bold" lengthAdjust="spacingAndGlyphs" textLength="166" x="1667" y="52.373">mosquitto network thread</text><rect fill="#FFFFFF" height="219.1064" style="stroke: #A80036; stroke-width: 1.0;" width="10" x="50" y="135.3271"/><rect fill="#FFFFFF" height="139.6475" style="stroke: #A80036; stroke-width: 1.0;" width="10" x="50" y="1321.9658"/><rect fill="#B7D3FF" height="963.5322" style="stroke: #A80036; stroke-width: 1.0;" width="10" x="242" y="356.4336"/><rect fill="#FFFFFF" height="341.7539" style="stroke: #A80036; stroke-width: 1.0;" width="10" x="465" y="517.8105"/><rect fill="#FFFFFF" height="266.5654" style="stroke: #A80036; stroke-width: 1.0;" width="10" x="591" y="563.2695"/><rect fill="#FFFFFF" height="298.0244" style="stroke: #A80036; stroke-width: 1.0;" width="10" x="1069" y="889.2939"/><rect fill="#FFFFFF" height="180.1064" style="stroke: #A80036; stroke-width: 1.0;" width="10" x="1351" y="993.2119"/><rect fill="#FFFFFF" height="120.6475" style="stroke: #A80036; stroke-width: 1.0;" width="10" x="1521" y="1022.9414"/><line style="stroke: #A80036; stroke-width: 1.0; stroke-dasharray: 5.0,5.0;" x1="55" x2="55" y1="125.3271" y2="1479.6133"/><line style="stroke: #A80036; stroke-width: 1.0; stroke-dasharray: 5.0,5.0;" x1="247" x2="247" y1="125.3271" y2="1479.6133"/><line style="stroke: #A80036; stroke-width: 1.0; stroke-dasharray: 5.0,5.0;" x1="470" x2="470" y1="125.3271" y2="1479.6133"/><line style="stroke: #A80036; stroke-width: 1.0; stroke-dasharray: 5.0,5.0;" x1="596" x2="596" y1="125.3271" y2="1479.6133"/><line style="stroke: #A80036; stroke-width: 1.0; stroke-dasharray: 5.0,5.0;" x1="821" x2="821" y1="125.3271" y2="1479.6133"/><line style="stroke: #A80036; stroke-width: 1.0; stroke-dasharray: 5.0,5.0;" x1="939" x2="939" y1="125.3271" y2="1479.6133"/><line style="stroke: #A80036; stroke-width: 1.0; stroke-dasharray: 5.0,5.0;" x1="1074" x2="1074" y1="125.3271" y2="1479.6133"/><line style="stroke: #A80036; stroke-width: 1.0; stroke-dasharray: 5.0,5.0;" x1="1356" x2="1356" y1="125.3271" y2="1479.6133"/><line style="stroke: #A80036; stroke-width: 1.0; stroke-dasharray: 5.0,5.0;" x1="1526" x2="1526" y1="125.3271" y2="1479.6133"/><line style="stroke: #A80036; stroke-width: 1.0; stroke-dasharray: 5.0,5.0;" x1="1750" x2="1750" y1="125.3271" y2="1479.6133"/><line style="stroke: #A80036; stroke-width: 1.0; stroke-dasharray: 5.0,5.0;" x1="2050.5" x2="2050.5" y1="125.3271" y2="1479.6133"/><rect fill="#FEFECE" height="47.8789" style="stroke: #A80036; stroke-width: 1.5;" width="94" x="8" y="76.4482"/><text fill="#000000" font-family="sans-serif" font-size="14" lengthAdjust="spacingAndGlyphs" textLength="41" x="34.5" y="97.0107">main()</text><text fill="#000000" font-family="sans-serif" font-size="14" font-style="italic" lengthAdjust="spacingAndGlyphs" textLength="80" x="15" y="113.9502">main thread</text><rect fill="#FEFECE" height="30.9395" style="stroke: #A80036; stroke-width: 1.5;" width="72" x="211" y="93.3877"/><text fill="#000000" font-family="sans-serif" font-size="14" lengthAdjust="spacingAndGlyphs" textLength="58" x="218" y="113.9502">:Sampler</text><rect fill="#FEFECE" height="47.8789" style="stroke: #A80036; stroke-width: 1.5;" width="144" x="398" y="76.4482"/><text fill="#000000" font-family="sans-serif" font-size="14" lengthAdjust="spacingAndGlyphs" textLength="94" x="423" y="97.0107">&lt;&lt;interface&gt;&gt;</text><text fill="#000000" font-family="sans-serif" font-size="14" lengthAdjust="spacingAndGlyphs" textLength="130" x="405" y="113.9502">:EnvironmentSensor</text><rect fill="#FEFECE" height="47.8789" style="stroke: #A80036; stroke-width: 1.5;" width="70" x="561" y="76.4482"/><text fill="#000000" font-family="sans-serif" font-size="14" lengthAdjust="spacingAndGlyphs" textLength="47" x="572.5" y="97.0107">sensor:</text><text fill="#000000" font-family="sans-serif" font-size="14" lengthAdjust="spacingAndGlyphs" textLength="56" x="568" y="113.9502">Bme280</text><rect fill="#FEFECE" height="64.8184" style="stroke: #A80036; stroke-width: 1.5;" width="108" x="767" y="59.5088"/><text fill="#000000" font-family="sans-serif" font-size="14" lengthAdjust="spacingAndGlyphs" textLength="94" x="774" y="80.0713">&lt;&lt;interface&gt;&gt;</text><text fill="#000000" font-family="sans-serif" font-size="14" lengthAdjust="spacingAndGlyphs" textLength="28" x="807" y="97.0107">:Bus</text><text fill="#000000" font-family="sans-serif" font-size="14" lengthAdjust="spacingAndGlyphs" textLength="90" x="776" y="113.9502">(LinuxI2cBus)</text><rect fill="#FEFECE" height="64.8184" style="stroke: #A80036; stroke-width: 1.5;" width="108" x="885" y="59.5088"/><text fill="#000000" font-family="sans-serif" font-size="14" lengthAdjust="spacingAndGlyphs" textLength="94" x="892" y="80.0713">&lt;&lt;interface&gt;&gt;</text><text fill="#000000" font-family="sans-serif" font-size="14" lengthAdjust="spacingAndGlyphs" textLength="41" x="918.5" y="97.0107">:Clock</text><text fill="#000000" font-family="sans-serif" font-size="14" lengthAdjust="spacingAndGlyphs" textLength="82" x="898" y="113.9502">(LinuxClock)</text><rect fill="#FEFECE" height="47.8789" style="stroke: #A80036; stroke-width: 1.5;" width="142" x="1003" y="76.4482"/><text fill="#000000" font-family="sans-serif" font-size="14" lengthAdjust="spacingAndGlyphs" textLength="55" x="1046.5" y="97.0107">callback</text><text fill="#000000" font-family="sans-serif" font-size="14" lengthAdjust="spacingAndGlyphs" textLength="128" x="1010" y="113.9502">(lambda from main)</text><rect fill="#FEFECE" height="47.8789" style="stroke: #A80036; stroke-width: 1.5;" width="108" x="1302" y="76.4482"/><text fill="#000000" font-family="sans-serif" font-size="14" lengthAdjust="spacingAndGlyphs" textLength="94" x="1309" y="97.0107">&lt;&lt;interface&gt;&gt;</text><text fill="#000000" font-family="sans-serif" font-size="14" lengthAdjust="spacingAndGlyphs" textLength="64" x="1324" y="113.9502">:Publisher</text><rect fill="#FEFECE" height="47.8789" style="stroke: #A80036; stroke-width: 1.5;" width="106" x="1473" y="76.4482"/><text fill="#000000" font-family="sans-serif" font-size="14" lengthAdjust="spacingAndGlyphs" textLength="64" x="1494" y="97.0107">publisher:</text><text fill="#000000" font-family="sans-serif" font-size="14" lengthAdjust="spacingAndGlyphs" textLength="92" x="1480" y="113.9502">MqttPublisher</text><rect fill="#FEFECE" height="30.9395" style="stroke: #A80036; stroke-width: 1.5;" width="94" x="1703" y="93.3877"/><text fill="#000000" font-family="sans-serif" font-size="14" lengthAdjust="spacingAndGlyphs" textLength="80" x="1710" y="113.9502">libmosquitto</text><rect fill="#FEFECE" height="47.8789" style="stroke: #A80036; stroke-width: 1.5;" width="103" x="1999.5" y="76.4482"/><text fill="#000000" font-family="sans-serif" font-size="14" lengthAdjust="spacingAndGlyphs" textLength="89" x="2006.5" y="97.0107">MQTT broker</text><text fill="#000000" font-family="sans-serif" font-size="14" lengthAdjust="spacingAndGlyphs" textLength="75" x="2013.5" y="113.9502">(mosquitto)</text><rect fill="#FFFFFF" height="219.1064" style="stroke: #A80036; stroke-width: 1.0;" width="10" x="50" y="135.3271"/><rect fill="#FFFFFF" height="139.6475" style="stroke: #A80036; stroke-width: 1.0;" width="10" x="50" y="1321.9658"/><rect fill="#B7D3FF" height="963.5322" style="stroke: #A80036; stroke-width: 1.0;" width="10" x="242" y="356.4336"/><rect fill="#FFFFFF" height="341.7539" style="stroke: #A80036; stroke-width: 1.0;" width="10" x="465" y="517.8105"/><rect fill="#FFFFFF" height="266.5654" style="stroke: #A80036; stroke-width: 1.0;" width="10" x="591" y="563.2695"/><rect fill="#FFFFFF" height="298.0244" style="stroke: #A80036; stroke-width: 1.0;" width="10" x="1069" y="889.2939"/><rect fill="#FFFFFF" height="180.1064" style="stroke: #A80036; stroke-width: 1.0;" width="10" x="1351" y="993.2119"/><rect fill="#FFFFFF" height="120.6475" style="stroke: #A80036; stroke-width: 1.0;" width="10" x="1521" y="1022.9414"/><rect fill="#EEEEEE" height="3" style="stroke: #EEEEEE; stroke-width: 1.0;" width="2104.5" x="3" y="156.1919"/><line style="stroke: #000000; stroke-width: 1.0;" x1="3" x2="2107.5" y1="156.1919" y2="156.1919"/><line style="stroke: #000000; stroke-width: 1.0;" x1="3" x2="2107.5" y1="159.1919" y2="159.1919"/><rect fill="#EEEEEE" height="23.7295" style="stroke: #000000; stroke-width: 2.0;" width="159" x="975.75" y="145.3271"/><text fill="#000000" font-family="sans-serif" font-size="13" font-weight="bold" lengthAdjust="spacingAndGlyphs" textLength="142" x="981.75" y="161.9209">start-up (main thread)</text><polygon fill="#A80036" points="458,212.5156,468,216.5156,458,220.5156,462,216.5156" style="stroke: #A80036; stroke-width: 1.0;"/><line style="stroke: #A80036; stroke-width: 1.0;" x1="60" x2="464" y1="216.5156" y2="216.5156"/><text fill="#000000" font-family="sans-serif" font-size="13" lengthAdjust="spacingAndGlyphs" textLength="28" x="251" y="195.6504">init()</text><text fill="#000000" font-family="sans-serif" font-size="13" font-style="italic" lengthAdjust="spacingAndGlyphs" textLength="146" x="192" y="211.3799">before the thread exists</text><polygon fill="#A80036" points="235,242.2451,245,246.2451,235,250.2451,239,246.2451" style="stroke: #A80036; stroke-width: 1.0;"/><line style="stroke: #A80036; stroke-width: 1.0;" x1="60" x2="241" y1="246.2451" y2="246.2451"/><text fill="#000000" font-family="sans-serif" font-size="13" lengthAdjust="spacingAndGlyphs" textLength="156" x="75.5" y="241.1094">onMeasurement(lambda)</text><polygon fill="#A80036" points="235,271.9746,245,275.9746,235,279.9746,239,275.9746" style="stroke: #A80036; stroke-width: 1.0;"/><line style="stroke: #A80036; stroke-width: 1.0;" x1="60" x2="241" y1="275.9746" y2="275.9746"/><text fill="#000000" font-family="sans-serif" font-size="13" lengthAdjust="spacingAndGlyphs" textLength="37" x="135" y="270.8389">start()</text><line style="stroke: #A80036; stroke-width: 1.0;" x1="247" x2="289" y1="305.7041" y2="305.7041"/><line style="stroke: #A80036; stroke-width: 1.0;" x1="289" x2="289" y1="305.7041" y2="318.7041"/><line style="stroke: #A80036; stroke-width: 1.0;" x1="248" x2="289" y1="318.7041" y2="318.7041"/><polygon fill="#A80036" points="258,314.7041,248,318.7041,258,322.7041,254,318.7041" style="stroke: #A80036; stroke-width: 1.0;"/><text fill="#000000" font-family="sans-serif" font-size="13" lengthAdjust="spacingAndGlyphs" textLength="209" x="254" y="300.5684">spawn std::thread(&amp;Sampler::run)</text><line style="stroke: #A80036; stroke-width: 1.0;" x1="65" x2="107" y1="348.4336" y2="348.4336"/><line style="stroke: #A80036; stroke-width: 1.0;" x1="107" x2="107" y1="348.4336" y2="361.4336"/><line style="stroke: #A80036; stroke-width: 1.0;" x1="66" x2="107" y1="361.4336" y2="361.4336"/><polygon fill="#A80036" points="76,357.4336,66,361.4336,76,365.4336,72,361.4336" style="stroke: #A80036; stroke-width: 1.0;"/><text fill="#000000" font-family="sans-serif" font-size="13" lengthAdjust="spacingAndGlyphs" textLength="160" x="72" y="343.2979">sigwait(SIGINT, SIGTERM)</text><path d="M60,374.4336 L60,446.4336 L274,446.4336 L274,384.4336 L264,374.4336 L60,374.4336 " fill="#FBFB77" style="stroke: #A80036; stroke-width: 1.0;"/><path d="M264,374.4336 L264,384.4336 L274,384.4336 L264,374.4336 " fill="#FBFB77" style="stroke: #A80036; stroke-width: 1.0;"/><text fill="#000000" font-family="sans-serif" font-size="13" lengthAdjust="spacingAndGlyphs" textLength="175" x="66" y="392.0273">main is blocked here for the</text><text fill="#000000" font-family="sans-serif" font-size="13" lengthAdjust="spacingAndGlyphs" textLength="92" x="66" y="407.7568">whole run. It is</text><text fill="#000000" font-family="sans-serif" font-size="13" font-weight="bold" lengthAdjust="spacingAndGlyphs" textLength="21" x="162" y="407.7568">not</text><text fill="#000000" font-family="sans-serif" font-size="13" lengthAdjust="spacingAndGlyphs" textLength="40" x="187" y="407.7568">on the</text><text fill="#000000" font-family="sans-serif" font-size="13" lengthAdjust="spacingAndGlyphs" textLength="193" x="66" y="423.4863">sampler thread's activation and</text><text fill="#000000" font-family="sans-serif" font-size="13" lengthAdjust="spacingAndGlyphs" textLength="142" x="66" y="439.2158">never calls the sensor.</text><rect fill="#EEEEEE" height="3" style="stroke: #EEEEEE; stroke-width: 1.0;" width="2104.5" x="3" y="473.2163"/><line style="stroke: #000000; stroke-width: 1.0;" x1="3" x2="2107.5" y1="473.2163" y2="473.2163"/><line style="stroke: #000000; stroke-width: 1.0;" x1="3" x2="2107.5" y1="476.2163" y2="476.2163"/><rect fill="#EEEEEE" height="23.7295" style="stroke: #000000; stroke-width: 2.0;" width="315" x="897.75" y="462.3516"/><text fill="#000000" font-family="sans-serif" font-size="13" font-weight="bold" lengthAdjust="spacingAndGlyphs" textLength="298" x="903.75" y="478.9453">one cycle, every period, on the sampler thread</text><polygon fill="#A80036" points="453,513.8105,463,517.8105,453,521.8105,457,517.8105" style="stroke: #A80036; stroke-width: 1.0;"/><line style="stroke: #A80036; stroke-width: 1.0;" x1="252" x2="459" y1="517.8105" y2="517.8105"/><text fill="#000000" font-family="sans-serif" font-size="13" lengthAdjust="spacingAndGlyphs" textLength="93" x="312" y="512.6748">readForced(m)</text><polygon fill="#A80036" points="579,559.2695,589,563.2695,579,567.2695,583,563.2695" style="stroke: #A80036; stroke-width: 1.0;"/><line style="stroke: #A80036; stroke-width: 1.0;" x1="475" x2="585" y1="563.2695" y2="563.2695"/><text fill="#000000" font-family="sans-serif" font-size="13" lengthAdjust="spacingAndGlyphs" textLength="93" x="486.5" y="542.4043">virtual dispatch</text><text fill="#000000" font-family="sans-serif" font-size="13" lengthAdjust="spacingAndGlyphs" textLength="85" x="490.5" y="558.1338">(same object)</text><polygon fill="#A80036" points="809,604.7285,819,608.7285,809,612.7285,813,608.7285" style="stroke: #A80036; stroke-width: 1.0;"/><line style="stroke: #A80036; stroke-width: 1.0;" x1="601" x2="815" y1="608.7285" y2="608.7285"/><text fill="#000000" font-family="sans-serif" font-size="13" lengthAdjust="spacingAndGlyphs" textLength="196" x="613" y="587.8633">write(0xF4, ctrl_meas = forced)</text><text fill="#000000" font-family="sans-serif" font-size="13" font-style="italic" lengthAdjust="spacingAndGlyphs" textLength="100" x="661" y="603.5928">via Bosch driver</text><polygon fill="#A80036" points="612,634.458,602,638.458,612,642.458,608,638.458" style="stroke: #A80036; stroke-width: 1.0;"/><line style="stroke: #A80036; stroke-width: 1.0; stroke-dasharray: 2.0,2.0;" x1="606" x2="820" y1="638.458" y2="638.458"/><text fill="#000000" font-family="sans-serif" font-size="13" lengthAdjust="spacingAndGlyphs" textLength="25" x="698.5" y="633.3223">true</text><polygon fill="#A80036" points="927,664.1875,937,668.1875,927,672.1875,931,668.1875" style="stroke: #A80036; stroke-width: 1.0;"/><line style="stroke: #A80036; stroke-width: 1.0;" x1="601" x2="933" y1="668.1875" y2="668.1875"/><text fill="#000000" font-family="sans-serif" font-size="13" lengthAdjust="spacingAndGlyphs" textLength="202" x="669" y="663.0518">delayUs(measurementTimeUs())</text><polygon fill="#A80036" points="612,678.1875,602,682.1875,612,686.1875,608,682.1875" style="stroke: #A80036; stroke-width: 1.0;"/><line style="stroke: #A80036; stroke-width: 1.0; stroke-dasharray: 2.0,2.0;" x1="606" x2="938" y1="682.1875" y2="682.1875"/><polygon fill="#A80036" points="809,723.6465,819,727.6465,809,731.6465,813,727.6465" style="stroke: #A80036; stroke-width: 1.0;"/><line style="stroke: #A80036; stroke-width: 1.0;" x1="601" x2="815" y1="727.6465" y2="727.6465"/><text fill="#000000" font-family="sans-serif" font-size="13" lengthAdjust="spacingAndGlyphs" textLength="118" x="652" y="706.7813">read(0xF7, data, 8)</text><text fill="#000000" font-family="sans-serif" font-size="13" font-style="italic" lengthAdjust="spacingAndGlyphs" textLength="167" x="627.5" y="722.5107">reg, repeated start, 8 bytes</text><polygon fill="#A80036" points="612,753.376,602,757.376,612,761.376,608,757.376" style="stroke: #A80036; stroke-width: 1.0;"/><line style="stroke: #A80036; stroke-width: 1.0; stroke-dasharray: 2.0,2.0;" x1="606" x2="820" y1="757.376" y2="757.376"/><text fill="#000000" font-family="sans-serif" font-size="13" lengthAdjust="spacingAndGlyphs" textLength="25" x="698.5" y="752.2402">true</text><line style="stroke: #A80036; stroke-width: 1.0;" x1="601" x2="643" y1="787.1055" y2="787.1055"/><line style="stroke: #A80036; stroke-width: 1.0;" x1="643" x2="643" y1="787.1055" y2="800.1055"/><line style="stroke: #A80036; stroke-width: 1.0;" x1="602" x2="643" y1="800.1055" y2="800.1055"/><polygon fill="#A80036" points="612,796.1055,602,800.1055,612,804.1055,608,800.1055" style="stroke: #A80036; stroke-width: 1.0;"/><text fill="#000000" font-family="sans-serif" font-size="13" lengthAdjust="spacingAndGlyphs" textLength="174" x="608" y="781.9697">compensate (Bosch, 32-bit)</text><polygon fill="#A80036" points="486,825.835,476,829.835,486,833.835,482,829.835" style="stroke: #A80036; stroke-width: 1.0;"/><line style="stroke: #A80036; stroke-width: 1.0; stroke-dasharray: 2.0,2.0;" x1="480" x2="595" y1="829.835" y2="829.835"/><text fill="#000000" font-family="sans-serif" font-size="13" lengthAdjust="spacingAndGlyphs" textLength="92" x="489.5" y="824.6992">Error::None, m</text><polygon fill="#A80036" points="263,855.5645,253,859.5645,263,863.5645,259,859.5645" style="stroke: #A80036; stroke-width: 1.0;"/><line style="stroke: #A80036; stroke-width: 1.0; stroke-dasharray: 2.0,2.0;" x1="257" x2="469" y1="859.5645" y2="859.5645"/><text fill="#000000" font-family="sans-serif" font-size="13" lengthAdjust="spacingAndGlyphs" textLength="92" x="315" y="854.4287">Error::None, m</text><polygon fill="#A80036" points="1057,885.2939,1067,889.2939,1057,893.2939,1061,889.2939" style="stroke: #A80036; stroke-width: 1.0;"/><line style="stroke: #A80036; stroke-width: 1.0;" x1="252" x2="1063" y1="889.2939" y2="889.2939"/><text fill="#000000" font-family="sans-serif" font-size="13" lengthAdjust="spacingAndGlyphs" textLength="70" x="625.5" y="884.1582">callback(m)</text><line style="stroke: #A80036; stroke-width: 1.0;" x1="1079" x2="1121" y1="934.7529" y2="934.7529"/><line style="stroke: #A80036; stroke-width: 1.0;" x1="1121" x2="1121" y1="934.7529" y2="947.7529"/><line style="stroke: #A80036; stroke-width: 1.0;" x1="1080" x2="1121" y1="947.7529" y2="947.7529"/><polygon fill="#A80036" points="1090,943.7529,1080,947.7529,1090,951.7529,1086,947.7529" style="stroke: #A80036; stroke-width: 1.0;"/><text fill="#000000" font-family="sans-serif" font-size="13" lengthAdjust="spacingAndGlyphs" textLength="106" x="1086" y="913.8877">json = toJson(m)</text><text fill="#000000" font-family="sans-serif" font-size="13" lengthAdjust="spacingAndGlyphs" textLength="190" x="1086" y="929.6172">{"t":21.37,"p":101325,"h":45.2}</text><polygon fill="#A80036" points="1339,989.2119,1349,993.2119,1339,997.2119,1343,993.2119" style="stroke: #A80036; stroke-width: 1.0;"/><line style="stroke: #A80036; stroke-width: 1.0;" x1="1079" x2="1345" y1="993.2119" y2="993.2119"/><text fill="#000000" font-family="sans-serif" font-size="13" lengthAdjust="spacingAndGlyphs" textLength="249" x="1088.5" y="972.3467">publish("han/ese/ander/bme280/state",</text><text fill="#000000" font-family="sans-serif" font-size="13" lengthAdjust="spacingAndGlyphs" textLength="31" x="1199.5" y="988.0762">json)</text><polygon fill="#A80036" points="1509,1018.9414,1519,1022.9414,1509,1026.9414,1513,1022.9414" style="stroke: #A80036; stroke-width: 1.0;"/><line style="stroke: #A80036; stroke-width: 1.0;" x1="1361" x2="1515" y1="1022.9414" y2="1022.9414"/><text fill="#000000" font-family="sans-serif" font-size="13" lengthAdjust="spacingAndGlyphs" textLength="93" x="1394.5" y="1017.8057">virtual dispatch</text><polygon fill="#A80036" points="1738,1064.4004,1748,1068.4004,1738,1072.4004,1742,1068.4004" style="stroke: #A80036; stroke-width: 1.0;"/><line style="stroke: #A80036; stroke-width: 1.0;" x1="1531" x2="1744" y1="1068.4004" y2="1068.4004"/><text fill="#000000" font-family="sans-serif" font-size="13" lengthAdjust="spacingAndGlyphs" textLength="160" x="1560.5" y="1047.5352">mosquitto_publish(QoS 0)</text><text fill="#000000" font-family="sans-serif" font-size="13" font-style="italic" lengthAdjust="spacingAndGlyphs" textLength="154" x="1563.5" y="1063.2646">queue only, never blocks</text><polygon fill="#A80036" points="1542,1094.1299,1532,1098.1299,1542,1102.1299,1538,1098.1299" style="stroke: #A80036; stroke-width: 1.0;"/><line style="stroke: #A80036; stroke-width: 1.0; stroke-dasharray: 2.0,2.0;" x1="1536" x2="1749" y1="1098.1299" y2="1098.1299"/><text fill="#000000" font-family="sans-serif" font-size="13" lengthAdjust="spacingAndGlyphs" textLength="138" x="1571.5" y="1092.9941">MOSQ_ERR_SUCCESS</text><polygon fill="#A80036" points="1372,1139.5889,1362,1143.5889,1372,1147.5889,1368,1143.5889" style="stroke: #A80036; stroke-width: 1.0;"/><line style="stroke: #A80036; stroke-width: 1.0; stroke-dasharray: 2.0,2.0;" x1="1366" x2="1525" y1="1143.5889" y2="1143.5889"/><text fill="#000000" font-family="sans-serif" font-size="13" lengthAdjust="spacingAndGlyphs" textLength="25" x="1431" y="1122.7236">true</text><text fill="#000000" font-family="sans-serif" font-size="13" lengthAdjust="spacingAndGlyphs" textLength="136" x="1375.5" y="1138.4531">(false if broker down)</text><polygon fill="#A80036" points="1090,1169.3184,1080,1173.3184,1090,1177.3184,1086,1173.3184" style="stroke: #A80036; stroke-width: 1.0;"/><line style="stroke: #A80036; stroke-width: 1.0; stroke-dasharray: 2.0,2.0;" x1="1084" x2="1355" y1="1173.3184" y2="1173.3184"/><text fill="#000000" font-family="sans-serif" font-size="13" lengthAdjust="spacingAndGlyphs" textLength="68" x="1183.5" y="1168.1826">true / false</text><polygon fill="#A80036" points="263,1183.3184,253,1187.3184,263,1191.3184,259,1187.3184" style="stroke: #A80036; stroke-width: 1.0;"/><line style="stroke: #A80036; stroke-width: 1.0; stroke-dasharray: 2.0,2.0;" x1="257" x2="1073" y1="1187.3184" y2="1187.3184"/><line style="stroke: #A80036; stroke-width: 1.0;" x1="2049" x2="2039" y1="1217.0479" y2="1213.0479"/><line style="stroke: #A80036; stroke-width: 1.0;" x1="2049" x2="2039" y1="1217.0479" y2="1221.0479"/><line style="stroke: #A80036; stroke-width: 1.0;" x1="1750" x2="2050" y1="1217.0479" y2="1217.0479"/><text fill="#000000" font-family="sans-serif" font-size="13" lengthAdjust="spacingAndGlyphs" textLength="242" x="1779.5" y="1211.9121">PUBLISH han/ese/ander/bme280/state</text><path d="M1755,1230.0479 L1755,1271.0479 L1964,1271.0479 L1964,1240.0479 L1954,1230.0479 L1755,1230.0479 " fill="#FBFB77" style="stroke: #A80036; stroke-width: 1.0;"/><path d="M1954,1230.0479 L1954,1240.0479 L1964,1240.0479 L1954,1230.0479 " fill="#FBFB77" style="stroke: #A80036; stroke-width: 1.0;"/><text fill="#000000" font-family="sans-serif" font-size="13" lengthAdjust="spacingAndGlyphs" textLength="188" x="1761" y="1247.6416">asynchronous, on mosquitto's</text><text fill="#000000" font-family="sans-serif" font-size="13" lengthAdjust="spacingAndGlyphs" textLength="156" x="1761" y="1263.3711">thread, not the sampler's</text><line style="stroke: #A80036; stroke-width: 1.0;" x1="257" x2="299" y1="1313.9658" y2="1313.9658"/><line style="stroke: #A80036; stroke-width: 1.0;" x1="299" x2="299" y1="1313.9658" y2="1326.9658"/><line style="stroke: #A80036; stroke-width: 1.0;" x1="258" x2="299" y1="1326.9658" y2="1326.9658"/><polygon fill="#A80036" points="268,1322.9658,258,1326.9658,268,1330.9658,264,1326.9658" style="stroke: #A80036; stroke-width: 1.0;"/><text fill="#000000" font-family="sans-serif" font-size="13" lengthAdjust="spacingAndGlyphs" textLength="151" x="264" y="1293.1006">wait_until(next deadline)</text><text fill="#000000" font-family="sans-serif" font-size="13" lengthAdjust="spacingAndGlyphs" textLength="84" x="264" y="1308.8301">or until stop()</text><rect fill="#EEEEEE" height="3" style="stroke: #EEEEEE; stroke-width: 1.0;" width="2104.5" x="3" y="1355.8306"/><line style="stroke: #000000; stroke-width: 1.0;" x1="3" x2="2107.5" y1="1355.8306" y2="1355.8306"/><line style="stroke: #000000; stroke-width: 1.0;" x1="3" x2="2107.5" y1="1358.8306" y2="1358.8306"/><rect fill="#EEEEEE" height="23.7295" style="stroke: #000000; stroke-width: 2.0;" width="136" x="987.25" y="1344.9658"/><text fill="#000000" font-family="sans-serif" font-size="13" font-weight="bold" lengthAdjust="spacingAndGlyphs" textLength="119" x="993.25" y="1361.5596">shutdown (Ctrl+C)</text><polygon fill="#A80036" points="235,1427.8838,245,1431.8838,235,1435.8838,239,1431.8838" style="stroke: #A80036; stroke-width: 1.0;"/><line style="stroke: #A80036; stroke-width: 1.0;" x1="60" x2="241" y1="1431.8838" y2="1431.8838"/><text fill="#000000" font-family="sans-serif" font-size="13" lengthAdjust="spacingAndGlyphs" textLength="37" x="135" y="1395.2891">stop()</text><text fill="#000000" font-family="sans-serif" font-size="13" font-style="italic" lengthAdjust="spacingAndGlyphs" textLength="163" x="72" y="1411.0186">on main: running_ = false,</text><text fill="#000000" font-family="sans-serif" font-size="13" font-style="italic" lengthAdjust="spacingAndGlyphs" textLength="132" x="87.5" y="1426.748">notify, join the thread</text><polygon fill="#A80036" points="1514,1457.6133,1524,1461.6133,1514,1465.6133,1518,1461.6133" style="stroke: #A80036; stroke-width: 1.0;"/><line style="stroke: #A80036; stroke-width: 1.0;" x1="55" x2="1520" y1="1461.6133" y2="1461.6133"/><text fill="#000000" font-family="sans-serif" font-size="13" lengthAdjust="spacingAndGlyphs" textLength="249" x="666" y="1456.4775">~MqttPublisher(): disconnect, loop_stop</text><!--MD5=[7425eed579ffef5c9f7ba5907b0e181c]
@startuml week5_sequence_diagram
title station_main - one sampling cycle (period 1 s)
skinparam shadowing false
skinparam sequenceMessageAlign center
skinparam maxMessageSize 260
hide footbox

participant "main()\n<i>main thread</i>" as main
box "used by the sampler thread during a cycle" #EAF2FF
  participant ":Sampler" as sampler
  participant "<<interface>>\n:EnvironmentSensor" as env
  participant "sensor:\nBme280" as bme
  participant "<<interface>>\n:Bus\n(LinuxI2cBus)" as bus
  participant "<<interface>>\n:Clock\n(LinuxClock)" as clk
  participant "callback\n(lambda from main)" as cb
  participant "<<interface>>\n:Publisher" as pub
  participant "publisher:\nMqttPublisher" as mqtt
end box
box "mosquitto network thread" #F3F3F3
  participant "libmosquitto" as lib
end box
participant "MQTT broker\n(mosquitto)" as broker

== start-up (main thread) ==
activate main
main -> env : init()\n<i>before the thread exists</i>
main -> sampler : onMeasurement(lambda)
main -> sampler : start()
sampler -> sampler : spawn std::thread(&Sampler::run)
main -> main : sigwait(SIGINT, SIGTERM)
note right of main
  main is blocked here for the
  whole run. It is **not** on the
  sampler thread's activation and
  never calls the sensor.
end note
deactivate main

== one cycle, every period, on the sampler thread ==
activate sampler #B7D3FF
sampler -> env : readForced(m)
activate env
env -> bme : virtual dispatch\n(same object)
activate bme
bme -> bus : write(0xF4, ctrl_meas = forced)\n<i>via Bosch driver</i>
bus - -> bme : true
bme -> clk : delayUs(measurementTimeUs())
clk - -> bme
bme -> bus : read(0xF7, data, 8)\n<i>reg, repeated start, 8 bytes</i>
bus - -> bme : true
bme -> bme : compensate (Bosch, 32-bit)
bme - -> env : Error::None, m
deactivate bme
env - -> sampler : Error::None, m
deactivate env

sampler -> cb : callback(m)
activate cb
cb -> cb : json = toJson(m)\n{"t":21.37,"p":101325,"h":45.2}
cb -> pub : publish("han/ese/ander/bme280/state", json)
activate pub
pub -> mqtt : virtual dispatch
activate mqtt
mqtt -> lib : mosquitto_publish(QoS 0)\n<i>queue only, never blocks</i>
lib - -> mqtt : MOSQ_ERR_SUCCESS
mqtt - -> pub : true\n(false if broker down)
deactivate mqtt
pub - -> cb : true / false
deactivate pub
cb - -> sampler
deactivate cb

lib ->> broker : PUBLISH han/ese/ander/bme280/state
note right of lib : asynchronous, on mosquitto's\nthread, not the sampler's

sampler -> sampler : wait_until(next deadline)\nor until stop()
deactivate sampler

== shutdown (Ctrl+C) ==
activate main
main -> sampler : stop()\n<i>on main: running_ = false,</i>\n<i>notify, join the thread</i>
main -> mqtt : ~MqttPublisher(): disconnect, loop_stop
deactivate main
@enduml

PlantUML version 1.2020.02(Sun Mar 01 10:22:07 UTC 2020)
(GPL source distribution)
Java Runtime: OpenJDK Runtime Environment
JVM: OpenJDK 64-Bit Server VM
Java Version: 21.0.12.1+1-1-24.04.4-Ubuntu
Operating System: Linux
Default Encoding: UTF-8
Language: en
Country: US
--></g></svg>